<svg xmlns="http://www.w3.org/2000/svg" viewBox="0 0 400 400" role="img" aria-label="Pavia Fight Team">
  <defs>
    <clipPath id="innerCircle"><circle cx="200" cy="200" r="150"/></clipPath>
    <path id="topArc" d="M 70 200 A 130 130 0 0 1 330 200" fill="none"/>
    <path id="bottomArc" d="M 66 205 A 134 134 0 0 0 334 205" fill="none"/>
  </defs>

  <circle cx="200" cy="200" r="198" fill="#111111" stroke="#000000" stroke-width="3"/>
  <circle cx="200" cy="200" r="196" fill="none" stroke="#2b2b2b" stroke-width="1.5"/>

  <g fill="#ffffff">
    <circle cx="330" cy="80" r="3.5"/>
    <circle cx="80" cy="120" r="2.5"/>
    <circle cx="120" cy="330" r="3"/>
    <circle cx="300" cy="315" r="2.2"/>
    <circle cx="355" cy="220" r="2"/>
  </g>

  <g clip-path="url(#innerCircle)">
    <rect x="50" y="50" width="150" height="300" fill="#1fa036"/>
    <rect x="200" y="50" width="150" height="300" fill="#d81f26"/>
    <polygon points="180,50 220,50 220,350 180,350" fill="#f4f4f4"/>

    <g fill="#e9e9e9" stroke="#1a1a1a" stroke-width="2.5" stroke-linejoin="round">
      <circle cx="200" cy="120" r="26"/>
      <path d="M 166 158 C 168 150 180 146 200 146 C 220 146 232 150 234 158 L 246 214 C 238 236 224 250 200 252 C 176 250 162 236 154 214 Z"/>
      <path d="M 168 160 C 140 168 126 188 128 214 L 150 214 C 150 196 158 182 174 176 Z"/>
      <path d="M 232 160 C 260 168 274 188 272 214 L 250 214 C 250 196 242 182 226 176 Z"/>
    </g>
    <g fill="#d81f26" stroke="#7a0a0a" stroke-width="2.5">
      <ellipse cx="132" cy="220" rx="20" ry="17"/>
      <ellipse cx="268" cy="220" rx="20" ry="17"/>
    </g>
    <path d="M 158 246 L 242 246 L 236 288 L 210 288 L 200 262 L 190 288 L 164 288 Z" fill="#141414" stroke="#000000" stroke-width="2"/>
  </g>

  <circle cx="200" cy="200" r="150" fill="none" stroke="#000000" stroke-width="6"/>

  <text x="140" y="250" font-family="Arial Black, Arial, sans-serif" font-weight="900" font-size="30" fill="#111111">PFT</text>

  <text font-family="Arial Black, Arial, sans-serif" font-weight="900" font-size="40" fill="#ffffff" letter-spacing="4">
    <textPath href="#topArc" startOffset="50%" text-anchor="middle">PAVIA</textPath>
  </text>
  <text font-family="Arial Black, Arial, sans-serif" font-weight="900" font-size="34" fill="#ffffff" letter-spacing="3">
    <textPath href="#bottomArc" startOffset="50%" text-anchor="middle">FIGHT TEAM</textPath>
  </text>
</svg>
